<mxfile host="app.diagrams.net" modified="2023-03-20T09:31:59.661Z" agent="5.0 (X11)" etag="71lyfPXISSJ0L7QjSnUD" version="21.0.8" type="github">
  <diagram name="Page-1" id="c7488fd3-1785-93aa-aadb-54a6760d102a">
    <mxGraphModel dx="956" dy="1823" grid="1" gridSize="10" guides="1" tooltips="1" connect="1" arrows="1" fold="1" page="1" pageScale="1" pageWidth="1100" pageHeight="850" background="none" math="0" shadow="0">
      <root>
        <mxCell id="0" />
        <mxCell id="1" parent="0" />
        <mxCell id="uGcOXAJnywHlXMPNpVDw-12" value="" style="group" vertex="1" connectable="0" parent="1">
          <mxGeometry x="170" y="425" width="586.74" height="290" as="geometry" />
        </mxCell>
        <mxCell id="uGcOXAJnywHlXMPNpVDw-9" value="" style="group" vertex="1" connectable="0" parent="uGcOXAJnywHlXMPNpVDw-12">
          <mxGeometry width="586.74" height="290" as="geometry" />
        </mxCell>
        <mxCell id="uGcOXAJnywHlXMPNpVDw-2" value="While loop format[i]" style="rounded=1;whiteSpace=wrap;html=1;" vertex="1" parent="uGcOXAJnywHlXMPNpVDw-9">
          <mxGeometry y="202.32558139534882" width="161.85931034482758" height="80.93023255813954" as="geometry" />
        </mxCell>
        <mxCell id="uGcOXAJnywHlXMPNpVDw-4" value="&lt;font style=&quot;font-size: 10px;&quot;&gt;While loop format[i] = &quot;%&quot;&lt;font style=&quot;font-size: 10px;&quot;&gt;&lt;br&gt;&lt;/font&gt;&lt;/font&gt;" style="strokeWidth=1;html=1;shape=mxgraph.flowchart.decision;whiteSpace=wrap;rounded=1;shadow=0;labelBackgroundColor=none;fontFamily=Verdana;fontSize=8;align=center;" vertex="1" parent="uGcOXAJnywHlXMPNpVDw-9">
          <mxGeometry x="256.27724137931034" y="195.5813953488372" width="94.41793103448276" height="94.41860465116278" as="geometry" />
        </mxCell>
        <mxCell id="uGcOXAJnywHlXMPNpVDw-5" value="&lt;div style=&quot;font-size: 13px;&quot;&gt;&lt;font style=&quot;font-size: 13px;&quot;&gt;Ft_Conversion&lt;/font&gt;&lt;/div&gt;&lt;div style=&quot;font-size: 13px;&quot;&gt;&lt;font style=&quot;font-size: 13px;&quot;&gt;(type =%cspduixX%) &lt;br&gt;&lt;/font&gt;&lt;/div&gt;" style="rounded=1;whiteSpace=wrap;html=1;fontSize=8;fontFamily=Verdana;strokeWidth=1;shadow=0;labelBackgroundColor=none;" vertex="1" parent="uGcOXAJnywHlXMPNpVDw-9">
          <mxGeometry x="222.55655172413793" width="161.85931034482758" height="80.93023255813954" as="geometry" />
        </mxCell>
        <mxCell id="uGcOXAJnywHlXMPNpVDw-7" value="&lt;font style=&quot;font-size: 13px;&quot;&gt;put character format[i]&lt;/font&gt;" style="rounded=1;whiteSpace=wrap;html=1;fontSize=8;fontFamily=Verdana;strokeWidth=1;shadow=0;labelBackgroundColor=none;" vertex="1" parent="uGcOXAJnywHlXMPNpVDw-9">
          <mxGeometry x="424.88068965517243" y="202.32558139534882" width="161.85931034482758" height="80.93023255813954" as="geometry" />
        </mxCell>
        <mxCell id="uGcOXAJnywHlXMPNpVDw-6" value="" style="edgeStyle=orthogonalEdgeStyle;rounded=0;orthogonalLoop=1;jettySize=auto;html=1;" edge="1" parent="uGcOXAJnywHlXMPNpVDw-9" source="uGcOXAJnywHlXMPNpVDw-4" target="uGcOXAJnywHlXMPNpVDw-5">
          <mxGeometry relative="1" as="geometry" />
        </mxCell>
        <mxCell id="uGcOXAJnywHlXMPNpVDw-8" value="" style="edgeStyle=orthogonalEdgeStyle;rounded=0;orthogonalLoop=1;jettySize=auto;html=1;" edge="1" parent="uGcOXAJnywHlXMPNpVDw-9" source="uGcOXAJnywHlXMPNpVDw-4" target="uGcOXAJnywHlXMPNpVDw-7">
          <mxGeometry relative="1" as="geometry" />
        </mxCell>
        <mxCell id="uGcOXAJnywHlXMPNpVDw-3" value="" style="endArrow=classic;html=1;rounded=0;entryX=0;entryY=0.5;entryDx=0;entryDy=0;entryPerimeter=0;" edge="1" parent="uGcOXAJnywHlXMPNpVDw-9" target="uGcOXAJnywHlXMPNpVDw-4">
          <mxGeometry width="50" height="50" relative="1" as="geometry">
            <mxPoint x="161.86" y="242.28999999999996" as="sourcePoint" />
            <mxPoint x="231.86" y="242.28999999999996" as="targetPoint" />
          </mxGeometry>
        </mxCell>
        <mxCell id="uGcOXAJnywHlXMPNpVDw-11" value="No" style="text;html=1;align=center;verticalAlign=middle;resizable=0;points=[];autosize=1;strokeColor=none;fillColor=none;" vertex="1" parent="uGcOXAJnywHlXMPNpVDw-9">
          <mxGeometry x="370" y="202.33000000000004" width="40" height="30" as="geometry" />
        </mxCell>
        <mxCell id="uGcOXAJnywHlXMPNpVDw-10" value="&lt;div&gt;Yes&lt;/div&gt;" style="text;html=1;align=center;verticalAlign=middle;resizable=0;points=[];autosize=1;strokeColor=none;fillColor=none;" vertex="1" parent="uGcOXAJnywHlXMPNpVDw-12">
          <mxGeometry x="310" y="115" width="40" height="30" as="geometry" />
        </mxCell>
        <mxCell id="uGcOXAJnywHlXMPNpVDw-13" value="Yes" style="text;html=1;align=center;verticalAlign=middle;resizable=0;points=[];autosize=1;strokeColor=none;fillColor=none;" vertex="1" parent="1">
          <mxGeometry x="350" y="645" width="40" height="30" as="geometry" />
        </mxCell>
      </root>
    </mxGraphModel>
  </diagram>
</mxfile>
